<?xml version="1.0" encoding="utf-8"?>
<!-- Uploaded to: SVG Repo, www.svgrepo.com, Generator: SVG Repo Mixer Tools -->
<svg width="150px" height="150px" viewBox="0 0 1024 1024" class="icon"  version="1.1" xmlns="http://www.w3.org/2000/svg"><path d="M904 440s-28.88-128-40-184c-16-78.48-116.8-126.32-190.88-139.92a32.72 32.72 0 0 1-15.52-7.28L624 80H400l-33.68 28.88a32.72 32.72 0 0 1-15.52 7.28C276.8 129.68 176 177.52 160 256c-11.12 56-40 184-40 184l136 56c0 80 0 264-16 480h544c-16-216-16-400-16-480z" fill="#65676C" /><path d="M624 80H400l112 160 112-160z" fill="#EAEAEA" /><path d="M202.72 177.36A132.24 132.24 0 0 0 160 248c-11.12 56-40 192-40 192l144 56c0-107.36 8.8-228.32-61.28-318.64zM864 248a132.24 132.24 0 0 0-42.72-70.64C751.2 267.68 760 388.64 760 496l144-56s-28.88-136-40-192z" fill="#FFD53E" /><path d="M400 80l-64 40 120 192 56-72-112-160zM624 80l64 40-120 192-56-72 112-160z" fill="#FFFFFF" /></svg>